<?xml version="1.0" standalone="no"?>
<!DOCTYPE svg PUBLIC "-//W3C//DTD SVG 20010904//EN"
 "http://www.w3.org/TR/2001/REC-SVG-20010904/DTD/svg10.dtd">
<svg version="1.0" xmlns="http://www.w3.org/2000/svg"
 width="520.000000pt" height="520.000000pt" viewBox="0 0 520.000000 520.000000"
 preserveAspectRatio="xMidYMid meet">
<metadata>
Created by potrace 1.11, written by Peter Selinger 2001-2013
</metadata>
<g transform="translate(0.000000,520.000000) scale(0.100000,-0.100000)"
fill="#000000" stroke="none">
<path d="M444 3486 c-171 -42 -280 -187 -283 -378 l-1 -37 -77 -3 -78 -3 -1
-145 c0 -80 2 -151 4 -157 3 -9 28 -13 78 -13 63 0 74 -2 75 -17 0 -10 1 -208
1 -440 1 -377 3 -422 17 -425 13 -3 310 -2 334 1 4 1 7 199 7 441 l0 440 105
0 c77 0 105 3 106 13 3 43 4 284 1 295 -3 9 -35 12 -114 12 l-110 0 7 33 c9
42 43 77 80 81 17 2 53 -2 80 -10 28 -7 52 -13 55 -14 3 0 5 69 5 152 l0 153
-60 16 c-75 20 -165 22 -231 5z"/>
<path d="M1367 3094 c-1 -1 -31 -4 -67 -8 -74 -7 -131 -23 -212 -60 -331 -152
-457 -579 -264 -895 139 -225 405 -341 678 -294 247 42 431 201 509 439 32 97
32 257 0 364 -80 267 -304 433 -612 454 -16 1 -31 1 -32 0z m144 -372 c215
-100 215 -422 0 -525 -64 -31 -187 -31 -252 0 -122 58 -181 184 -154 332 17
96 106 192 193 207 15 3 29 8 32 11 12 12 138 -5 181 -25z"/>
<path d="M2468 3089 c-93 -10 -163 -32 -232 -74 -111 -67 -101 -12 -101 -554
l1 -474 33 -28 c53 -44 143 -87 216 -104 173 -40 327 -5 446 102 l38 34 3 -62
3 -63 165 -1 c91 0 171 1 178 3 9 3 12 133 12 603 l0 599 -180 0 -180 0 0 -64
0 -65 -32 30 c-98 90 -230 132 -370 118z m258 -364 c171 -81 211 -326 75 -465
-135 -139 -374 -104 -458 68 -38 77 -40 192 -5 264 69 144 239 203 388 133z"/>
<path d="M4750 3089 c-122 -14 -188 -48 -277 -138 -45 -47 -52 -51 -57 -33
-11 33 -103 112 -164 140 -50 24 -69 27 -157 27 -55 0 -109 -4 -120 -9 -11 -5
-22 -10 -25 -11 -50 -17 -119 -65 -164 -113 l-36 -37 0 78 0 77 -172 -2 -173
-3 -3 -600 -2 -600 182 1 183 0 5 385 c6 423 6 429 69 482 39 32 87 47 138 40
47 -5 82 -29 108 -74 19 -32 20 -53 21 -429 1 -217 2 -397 3 -400 2 -8 359 -5
367 3 4 4 7 174 8 379 1 370 1 373 24 420 13 27 36 56 50 67 32 22 94 41 119
36 10 -2 30 -6 45 -9 36 -8 73 -47 89 -93 9 -28 13 -139 13 -420 0 -211 3
-383 6 -384 3 -1 85 -2 183 -3 112 0 177 3 178 9 6 54 2 836 -4 885 -22 170
-155 309 -314 326 -27 3 -52 6 -58 8 -5 1 -35 -1 -65 -5z"/>
</g>
</svg>
